<svg width="756.702" height="529.716" viewBox="0 0 200.211 140.154" xmlns="http://www.w3.org/2000/svg"><path style="fill:none;stroke:#000;stroke-width:.465;stroke-linecap:butt;stroke-linejoin:miter;stroke-miterlimit:4;stroke-dasharray:none;stroke-opacity:1" d="M42.982 59.693 54.783 74.68l64.086 13.782 5.685 8.7 6.546-8.356 60.038-2.67 13.006-16.71-3.531 16.193-41.432 55.214-60.21 26.1-16.193-1.81-30.234 33.766.689-34.196-1.379-1.981-33.42-8.356L4.393 121.71l.086-28.51z" transform="translate(-4.16 -59.357)"/><path style="fill:none;stroke:#000;stroke-width:.264583px;stroke-linecap:butt;stroke-linejoin:miter;stroke-opacity:1" d="m4.48 93.2 13.436 17.055 66.498 16.022 8.01 7.838M4.393 121.711l50.39-47.03" transform="translate(-4.16 -59.357)"/><path style="fill:none;stroke:#000;stroke-width:.465;stroke-linecap:butt;stroke-linejoin:miter;stroke-miterlimit:4;stroke-dasharray:none;stroke-opacity:1" d="M67.445 163.832 52.544 198.89" transform="translate(-4.16 -59.357)"/><path style="fill:none;stroke:#000;stroke-width:.264583px;stroke-linecap:butt;stroke-linejoin:miter;stroke-opacity:1" d="m174.686 107.585 29.458-38.159m-44.963 71.408 15.505-33.249m-76.662 20.156 68.479-2.153" transform="translate(-4.16 -59.357)"/><path style="fill:#f0ee41;fill-opacity:1;stroke:#fc0;stroke-width:.57216;stroke-miterlimit:4;stroke-dasharray:none" d="M374.783 478.995c1.507-1.757 23.298-27.44 48.425-57.073 25.126-29.634 45.818-54.027 45.982-54.206.193-.21.521-.038.93.489.403.52.72.688.877.465.135-.191 5.802-7.443 12.593-16.115 6.79-8.671 12.36-15.794 12.377-15.827.017-.033 7.134-.376 15.814-.761 8.681-.385 59.294-2.64 112.474-5.011 53.18-2.371 96.714-4.3 96.742-4.285.028.014-13.76 17.915-30.642 39.78l-30.692 39.754-15.694 33.659c-8.631 18.512-15.808 33.776-15.947 33.92-.285.294-.033.286-143.43 4.762-57.12 1.782-105.81 3.331-108.202 3.442l-4.348.2zM193.559 446.36c-119.34-28.78-125.361-30.267-126.1-31.125l-.775-.902 1.737-1.698c.955-.934 32.518-30.413 70.14-65.51l68.404-63.813 119.963 25.8c65.98 14.19 120.121 25.855 120.315 25.924.498.176-127.034 141.402-127.764 141.482-.328.036-56.992-13.535-125.92-30.158z" transform="translate(-4.16 -59.357) scale(.26458)"/><path style="fill:#4b5156;fill-opacity:1;stroke:#fc0;stroke-width:0;stroke-miterlimit:4;stroke-dasharray:none" d="M606.838 522.977c0-.486 21.91-47.214 22.273-47.501.225-.18.41-.554.409-.833-.001-.278 7.037-15.606 15.64-34.06l15.643-33.555 31.048-40.187c42.132-54.535 77.258-99.613 77.367-99.288.05.148-2.62 12.695-5.932 27.882l-6.022 27.613-75.06 100.061c-41.284 55.033-75.13 100.06-75.214 100.06-.084 0-.152-.086-.152-.192zM202.607 745.111c.11-.317 12.093-28.557 26.63-62.756 21.003-49.415 26.535-62.152 26.947-62.042.285.077 12.567 1.14 27.295 2.365 14.727 1.224 26.777 2.333 26.777 2.465 0 .224-105.238 117.95-107.03 119.73-.6.597-.766.66-.62.238z" transform="translate(-4.16 -59.357) scale(.26458)"/><path style="fill:#3eeeee;fill-opacity:1;stroke:#fc0;stroke-width:0;stroke-miterlimit:4;stroke-dasharray:none" d="m133.153 598.231-62.67-15.683-26.27-61.024c-14.45-33.563-26.28-61.187-26.29-61.386-.01-.2 10.7-10.368 23.8-22.598l23.818-22.236.898 1.005c.887.993 2.427 1.374 126.183 31.184 68.906 16.597 125.445 30.27 125.64 30.382.205.117-25.685 29.054-60.435 67.55-33.436 37.04-61.065 67.602-61.399 67.917-.58.548-3.224-.083-63.275-15.111zm210.797 28.301c-23.144-2.618-35.785-3.863-57.786-5.693-15.488-1.289-28.427-2.442-28.753-2.563-.487-.181 9.466-12.077 55.473-66.302a401013.79 401013.79 0 0 1 57.11-67.303l1.043-1.222 52.056-1.637c28.632-.9 86.265-2.715 128.075-4.032 41.81-1.317 76.053-2.363 76.098-2.323.216.192-25.479 54.81-26.08 55.436-.41.426-47.165 20.867-113.828 49.765-62.222 26.973-113.277 49.083-113.456 49.133-.18.05-13.657-1.416-29.951-3.26z" transform="translate(-4.16 -59.357) scale(.26458)"/><path style="fill:#41b5ac;fill-opacity:1;stroke:#fc0;stroke-width:0;stroke-miterlimit:4;stroke-dasharray:none" d="M199.895 741.591c.002-2.223.513-28.947 1.136-59.387.623-30.44 1.135-56.453 1.137-57.808l.003-2.463-2.464-3.494c-1.355-1.922-2.417-3.618-2.36-3.768.057-.151 27.624-30.764 61.261-68.03l61.158-67.757 14.463 14.218c7.954 7.819 14.421 14.329 14.371 14.466-.114.31-91.711 108.318-93.574 110.339-1.208 1.311-4.156 8.07-28.116 64.46-14.722 34.647-26.823 63.056-26.892 63.13-.07.075-.125-1.683-.123-3.906zM17.797 406.6c.11-28.369.224-51.614.256-51.656.032-.041 7.467 9.335 16.523 20.836a88234.365 88234.365 0 0 0 23.327 29.613l6.86 8.701-21.882 20.402c-12.035 11.221-22.648 21.141-23.583 22.044l-1.7 1.641z" transform="translate(-4.16 -59.357) scale(.26458)"/><path style="fill:#b0ae3f;fill-opacity:1;stroke:#fc0;stroke-width:0;stroke-miterlimit:4;stroke-dasharray:none" d="M42.05 382.997c-13.086-16.609-23.716-30.322-23.622-30.474.094-.152 24.368-21.334 53.941-47.072l71.827-62.512c14.366-12.504 18.135-15.63 18.446-15.301.215.228 10.01 12.639 21.765 27.58l21.375 27.165-1.887 1.849c-1.038 1.016-31.627 29.576-67.975 63.465-36.348 33.89-66.985 62.49-68.082 63.558l-1.994 1.94zm293.162 109.101-14.533-14.258 1.543-1.69c.85-.93 29.665-32.85 64.035-70.933 34.37-38.083 62.572-69.239 62.67-69.234.266.013 19.645 29.84 19.593 30.158-.031.19-95.531 112.934-118.091 139.413l-.684.802z" transform="translate(-4.16 -59.357) scale(.26458)"/><path style="fill:none;stroke:#000;stroke-width:.264583px;stroke-linecap:butt;stroke-linejoin:miter;stroke-opacity:1" d="m51.854 162.713 67.015-74.25m12.231.344-63.655 75.025" transform="translate(-4.16 -59.357)"/><path style="fill:none;stroke:#000;stroke-width:.465;stroke-linecap:butt;stroke-linejoin:miter;stroke-miterlimit:4;stroke-dasharray:none;stroke-opacity:1" d="m67.445 163.832 15.333 1.292" transform="translate(-4.16 -59.357)"/></svg>