<svg width="719.431" height="361.9" viewBox="0 0 190.35 95.753" xmlns="http://www.w3.org/2000/svg"><g style="display:inline"><path style="fill:none;stroke:#000;stroke-width:.264583px;stroke-linecap:butt;stroke-linejoin:miter;stroke-opacity:1" d="m85.19 89.755 21.103 13.35 21.448 37.987 18.261 11.543 13.179-25.928 10.509 2.412 27.563 56.075-89.496-7.321-6.977-4.652 27.478-7.924-31.612-8.786-59.78-6.891-29.372-9.475 14.988-6.719 26.013-8.183 20.156-22.223zM68.651 103.02l59.09 38.072M48.495 125.243l148.758 59.951M22.482 133.426l174.771 51.768M68.651 103.02l128.602 82.174M148.845 154.53l20.845-25.41M159.181 126.707l5.771 8.183M100.78 173.221l13.524 1.81" transform="translate(-7.126 -89.592)"/><path style="fill:#f2f049;fill-opacity:1;stroke:#fc0;stroke-width:0" d="M370.484 459.46a330906.55 330906.55 0 0 0-109.35-69.896c-.324-.196 8.18-7.192 30.228-24.866l30.68-24.593 6.07 3.834c3.34 2.11 21.153 13.377 39.586 25.039l33.514 21.203 39.179 69.385c21.548 38.162 39.136 69.415 39.085 69.452-.052.037-49.098-31.264-108.992-69.557zM461.446 584.746c-151.498-61.084-275.776-111.21-276.174-111.392-.672-.309 1.868-3.188 36.715-41.61 20.59-22.703 37.531-41.286 37.646-41.295.114-.01 50.19 32.188 111.28 71.55 108.359 69.817 180.64 115.905 181.218 115.547.35-.216 9.456 5.557 10.015 6.348.218.31.731.633 1.14.717.407.084 39.197 24.735 86.2 54.78 47.002 30.045 86.118 55.043 86.923 55.55.806.509 1.246.91.977.895-.269-.016-124.441-50.007-275.94-111.09zM407.597 599.167c-175.744-52.08-319.723-94.733-319.954-94.785-.232-.052 21.186-6.89 47.595-15.194l48.015-15.098 272.428 109.788c149.834 60.383 272.488 109.846 272.562 109.917.075.071-.145.114-.488.095-.343-.018-144.414-42.644-320.158-94.723z" transform="matrix(.26458 0 0 .26458 -7.126 -89.592)"/><path style="fill:none;stroke:#000;stroke-width:.264583px;stroke-linecap:butt;stroke-linejoin:miter;stroke-opacity:1" d="m132.65 166.416.464-.215M128.258 165.297l.894-.302" transform="translate(-7.126 -89.592)"/><path style="fill:#f2f049;fill-opacity:1;stroke:#fc0;stroke-width:0" d="m410.202 603.163-43.95-12.316-112.969-13.014-112.968-13.013-54.042-17.36c-29.724-9.547-54.257-17.536-54.518-17.751-.261-.216 11.623-5.816 26.41-12.445l26.884-12.053 184.877 54.766c101.682 30.122 185.316 54.943 185.853 55.158 4.808 1.92-8.124-1.476-45.577-11.972zM572.164 684.999c-88.008-7.24-160.146-13.295-160.307-13.456-.162-.162 4.161-2.29 9.606-4.729s10.655-4.832 11.579-5.318c3.687-1.94 69.808-32.195 70.36-32.195.61 0 228.145 67.292 231.054 68.333 1.601.573 1.596.582-.326.555-1.074-.015-73.959-5.95-161.966-13.19zM654.018 640.363c-48.69-31.129-88.788-56.695-89.108-56.813-.32-.118 16.654-21.228 37.721-46.911 21.067-25.683 38.51-46.472 38.761-46.198.679.74 101.543 206.127 101.332 206.339-.1.099-40.017-25.289-88.706-56.417z" transform="matrix(.26458 0 0 .26458 -7.126 -89.592)"/><path style="fill:#4ddfe1;fill-opacity:1;stroke:#fc0;stroke-width:0" d="M558.98 579.647c-2.148-1.393-4.317-2.768-4.82-3.055-.716-.407 4.312-10.813 23.021-47.645 13.165-25.917 24.125-47.329 24.356-47.58.332-.361 20.262 27.117 20.532 28.307.057.251-33.366 41.24-54.298 66.591l-4.883 5.914zM613.498 494.15c-5.492-7.784-9.398-13.885-8.77-13.696.623.188 8.458 1.996 17.411 4.018 8.953 2.022 16.492 3.874 16.754 4.116.376.346-11.268 15.219-14.71 18.79-.617.638-2.888-2.173-10.685-13.227zM408.248 657.576c-11.28-1.554-21.096-2.91-21.812-3.016-.716-.105 21.876-6.87 50.204-15.032l51.507-14.84 6.272 1.771c3.45.975 6.202 1.83 6.117 1.9-.978.806-70.178 32.175-70.854 32.119-.508-.043-10.153-1.349-21.434-2.902zM395.551 663.391c-7.536-5.105-10.445-7.387-9.115-7.152 1.074.19 10.157 1.406 20.184 2.702 10.028 1.296 18.753 2.557 19.39 2.8.831.32-1.563 1.69-8.464 4.844-5.293 2.42-9.916 4.378-10.274 4.351-.359-.026-5.633-3.421-11.72-7.545z" transform="matrix(.26458 0 0 .26458 -7.126 -89.592)"/></g><path style="fill:none;stroke:#000;stroke-width:.264583px;stroke-linecap:butt;stroke-linejoin:miter;stroke-opacity:1" d="m100.632 88.28 24.893-11.456"/></svg>