<svg width="582.386" height="332.828" viewBox="0 0 154.09 88.061" xmlns="http://www.w3.org/2000/svg"><path style="fill:none;stroke:#000;stroke-width:.264583px;stroke-linecap:butt;stroke-linejoin:miter;stroke-opacity:1" d="m55.817 163.402 50.734-25.41 60.64 32.215-40.053 24.462-19.467-1.722 13.265-8.011" transform="translate(-55.753 -106.744)"/><path style="fill:none;stroke:#000;stroke-width:.264583px;stroke-linecap:butt;stroke-linejoin:miter;stroke-opacity:1" d="m148.07 181.49-57.454 1.034-34.8-19.122M120.247 182.18l4.393 12.317M122.487 188.381l-12.662 3.36M167.192 170.207v6.46l-6.03-2.843" transform="translate(-55.753 -106.744)"/><path style="fill:none;stroke:#000;stroke-width:.264583px;stroke-linecap:butt;stroke-linejoin:miter;stroke-opacity:1" d="m167.192 176.667 5.34-10.681-60.64-30.837 43.499-28.253 33.335 16.194 1.292 30.061" transform="translate(-55.753 -106.744)"/><path style="fill:none;stroke:#000;stroke-width:.264583px;stroke-linecap:butt;stroke-linejoin:miter;stroke-opacity:1" d="M172.532 165.986c2.154-1.465 36.953-26.53 36.953-26.53l-19.984-2.154" transform="translate(-55.753 -106.744)"/><path style="fill:none;stroke:#000;stroke-width:.264583px;stroke-linecap:butt;stroke-linejoin:miter;stroke-opacity:1" d="m209.485 139.456-4.565-9.217-9.906 7.666" transform="translate(-55.753 -106.744)"/><path style="fill:none;stroke:#000;stroke-width:.264583px;stroke-linecap:butt;stroke-linejoin:miter;stroke-opacity:1" d="M199.235 138.422c1.12-2.412 5.685-8.183 5.685-8.183" transform="translate(-55.753 -106.744)"/><path style="fill:#e0de42;fill-opacity:1;stroke:#000;stroke-width:.264583px;stroke-linecap:butt;stroke-linejoin:miter;stroke-opacity:1" d="m111.892 135.149-1.292 4.996" transform="translate(-55.753 -106.744)"/><path style="fill:#e0de42;fill-opacity:1;stroke:#fc0;stroke-width:0" d="M277.65 653.46c-35.75-19.643-64.904-35.813-64.786-35.932.393-.4 189.412-95.01 189.816-95.01.451 0 226.563 120.022 227.19 120.594.31.284-7.742 5.346-34.66 21.788-30.563 18.668-35.115 21.351-35.448 20.896-.35-.479-2.595-.48-27.033-.025-14.658.273-43.06.793-63.113 1.154-20.055.362-56.533 1.022-81.064 1.468-24.53.445-44.894.804-45.252.797-.359-.007-29.901-16.085-65.65-35.73zM538.308 568.719c-62.311-31.696-113.406-57.741-113.544-57.879-.217-.216 160.998-105.2 162.336-105.714.3-.115 25.835 12.112 62.936 30.135 34.338 16.68 62.474 30.368 62.524 30.418.05.05 1.187 25.544 2.527 56.654 1.34 31.11 2.508 56.68 2.597 56.823.088.143-5.002 3.967-11.311 8.5-34.884 25.053-54.087 38.714-54.409 38.703-.2-.007-51.344-25.945-113.656-57.64zM718.818 577.964c-.006-.324-.578-13.554-1.27-29.4-.691-15.847-1.23-28.842-1.197-28.879.051-.056 71.127 7.539 72.928 7.793.394.055-12.125 9.25-34.509 25.345-19.32 13.893-35.31 25.365-35.534 25.494-.261.152-.41.025-.418-.353zM475.344 734.652c-3.207-.31-3.751-.447-3.996-1.01-.63-1.441-16.114-44.934-16.034-45.035.112-.142 103.755-2.028 103.892-1.891.236.236-78.996 48.387-79.549 48.343-.33-.026-2.27-.21-4.313-.407zM771.081 524.22c-9.132-.991-16.662-1.851-16.734-1.91-.224-.184 3.764-6.589 6.863-11.023 1.626-2.328 5.24-7.28 8.032-11.006l5.074-6.774 4.05 8.076c2.226 4.442 5.85 11.775 8.05 16.296l4.003 8.22-1.367-.037c-.752-.02-8.839-.85-17.97-1.841zM439.827 731.511a21656.745 21656.745 0 0 0-29.455-2.646l-1.295-.106 2.866-1.71c1.576-.94 2.965-1.707 3.085-1.705.12.002 10.806-2.804 23.745-6.236 12.939-3.432 23.576-6.18 23.64-6.108.062.073 1.798 4.857 3.858 10.631l3.744 10.5-1.014-.04c-.557-.022-13.685-1.183-29.174-2.58z" transform="matrix(.26458 0 0 .26458 -55.753 -106.744)"/><path style="fill:#65ccb8;fill-opacity:1;stroke:#fc0;stroke-width:0" d="M419.317 722.657c.09-.093 8-4.897 17.58-10.675 9.58-5.777 18.158-10.975 19.063-11.55l1.645-1.047 2.16 6.052c1.189 3.329 2.133 6.077 2.099 6.107-.074.066-40.324 10.73-41.733 11.057-.537.125-.903.15-.814.056zM745.046 521.411l-6.176-.694 15.253-11.808c8.39-6.494 15.332-11.728 15.429-11.631.096.096-.122.504-.485.907-2.27 2.516-12.277 16.892-15.068 21.648-1.07 1.823-1.544 2.35-2.081 2.317-.383-.024-3.475-.356-6.872-.739z" transform="matrix(.26458 0 0 .26458 -55.753 -106.744)"/><path style="fill:#a19f3f;fill-opacity:1;stroke:#fc0;stroke-width:0" d="m632.593 653.752.014-10.872-106.556-56.608c-58.605-31.135-106.69-56.743-106.855-56.908-.183-.182.564-3.67 1.911-8.923l2.21-8.624 3.454 1.736c14.968 7.526 223.9 113.876 224.066 114.054.118.126-3.942 8.506-9.022 18.623l-9.236 18.394.014-10.872z" transform="matrix(.26458 0 0 .26458 -55.753 -106.744)"/><path style="fill:#504d3f;fill-opacity:1;stroke:#fc0;stroke-width:0" d="M620.757 661.74c-5.327-2.532-9.684-4.677-9.683-4.766 0-.128 11.045-6.93 18.928-11.658l1.253-.75v10.924c0 8.541-.09 10.917-.407 10.89-.224-.02-4.765-2.107-10.091-4.64z" transform="matrix(.26458 0 0 .26458 -55.753 -106.744)"/></svg>