<svg width="716.67" height="491.538" viewBox="0 0 189.619 130.053" xmlns="http://www.w3.org/2000/svg"><g style="display:inline"><path style="fill:none;stroke:#000;stroke-width:.264583px;stroke-linecap:butt;stroke-linejoin:miter;stroke-opacity:1" d="m37.814 128.344 82.26 15.505-36.263-17.917-24.98 6.633m-21.017-4.221L6.72 146.519l58.831 9.216zm-17.227 10.164 44.963 17.227m54.525-11.886 75.542 37.728-19.036-32.99 16.624-51.51s-20.673-31.01-20.328-31.096c.344-.086-6.116 13.954-6.116 13.954l-11.628 13.007-52.889-15.677 42.638 78.987" transform="translate(-6.333 -62.18)"/><path style="fill:none;stroke:#000;stroke-width:.264583px;stroke-linecap:butt;stroke-linejoin:miter;stroke-opacity:1" d="m108.963 89.927-9.992 22.654 36.953 26.788 59.693 42.208M166.761 79.935l26.444 17.141m-22.654-14.385c-.086-4.91 2.67-16.366 2.67-16.366m-18.088 26.617 7.063 11.8m-24.544 48.624-67.486 21.196m22.17-6.7-17.655-3.254m96.645-.518.07 5.234" transform="translate(-6.333 -62.18)"/><path style="fill:#f0ee43;fill-opacity:1;stroke:#fc0;stroke-width:0" d="m531.676 538.525-18.28-12.97-62.46-115.7c-34.353-63.636-62.332-115.829-62.176-115.985.244-.244 193.631 56.766 196.205 57.841 1.147.48 26.232 42.132 26.209 43.518-.018 1.078-60.59 156.358-60.972 156.303-.135-.02-8.472-5.873-18.526-13.007zm68.201-166.155c-6.692-11.206-12.168-20.616-12.168-20.911 0-.902 42.243-47.824 43.017-47.782.397.022 3.547 1.892 7 4.156l6.279 4.116-15.629 40.044c-8.596 22.024-15.786 40.203-15.98 40.398-.192.195-5.826-8.814-12.519-20.02zM442.86 474.413c-36.562-26.496-66.763-48.445-67.112-48.776-.535-.508 2.26-7.176 17.725-42.296 10.099-22.932 18.472-41.7 18.607-41.707.375-.019 97.727 180.484 97.477 180.734-.12.12-30.134-21.46-66.697-47.955zm-105.612 46.572c-59.254-11.197-107.998-20.448-108.32-20.559-.54-.185 86.51-23.482 87.645-23.456.458.01 129.995 63.846 130.444 64.282.105.102-.31.165-.921.139-.612-.027-49.594-9.21-108.848-20.406z" transform="translate(-6.333 -62.18) scale(.26458)"/><path style="fill:none;stroke:#000;stroke-width:.264583px;stroke-linecap:butt;stroke-linejoin:miter;stroke-opacity:1" d="m137.652 153.366-1.157.488 1.157-.488 2.436-1.279" transform="translate(-6.333 -62.18)"/><path style="fill:#f0ee43;fill-opacity:1;stroke:#fc0;stroke-width:0" d="m314.124 627.402-31.526-5.839-2.084-2.039A9441.19 9441.19 0 0 0 266 605.432c-16.71-16.2-120.975-119.11-120.76-119.19.127-.049 60.329 11.23 74.473 13.953 2.012.387 2.491.608 2.72 1.254.035.1.581.067 1.212-.073 1.084-.24 7.604.961 115.445 21.28l114.296 21.534 34.012 16.982c18.707 9.34 34.013 17.045 34.013 17.12 0 .077-.389.31-.864.519-.474.209-39.63 12.552-87.012 27.429-56.016 17.588-86.453 27.04-87.017 27.025-.477-.014-15.054-2.653-32.394-5.863zm-58.714 24.857c-5.317-3.738-9.798-6.923-9.957-7.08-.231-.226 3.461-2.51 18.221-11.266 10.181-6.04 18.724-10.983 18.984-10.983.633 0 60.581 11.022 61.086 11.232.25.104-13.848 4.634-38.733 12.444-21.52 6.754-39.309 12.317-39.53 12.364-.244.05-4.21-2.592-10.07-6.711z" transform="translate(-6.333 -62.18) scale(.26458)"/><path style="fill:#40edeb;fill-opacity:1;stroke:#fc0;stroke-width:0" d="M313.387 692.624c-25.532-17.866-46.354-32.542-46.271-32.613.592-.51 80.2-25.143 80.835-25.012.444.091 1.014-.094 1.268-.411.413-.519 160.527-51.07 165.516-52.257 1.14-.271 3.475-1.079 5.19-1.795l3.12-1.302 53.74 26.724 53.742 26.724-5.295 1.844c-6.081 2.118-265.342 90.623-265.391 90.598-.018-.009-20.923-14.634-46.454-32.5zm285.5-106.635c-26.236-18.549-47.513-33.842-47.282-33.985.231-.142 14.006-35.05 30.61-77.573 16.605-42.522 30.435-77.61 30.734-77.972.299-.362.543-.987.543-1.39 0-.402 7.14-19.02 15.866-41.374 11.602-29.721 16.032-40.579 16.486-40.404.481.184 82.807 53.402 83.335 53.87.29.255-62.927 195.393-72.045 222.39-5.473 16.206-10.085 29.623-10.248 29.814-.163.191-21.762-14.828-47.999-33.376zm93.795 66.362c-23.55-16.693-43.21-30.619-43.691-30.946-.833-.568-.429-1.908 8.748-28.997 5.291-15.621 9.771-28.352 9.956-28.29.311.103 68.495 118.032 68.495 118.468 0 .108-.155.18-.345.157-.19-.022-19.613-13.698-43.163-30.392zm-39.25 16.468c-42.858-8.382-77.92-15.35-77.917-15.486.004-.135 12.832-4.606 28.507-9.934l28.5-9.688 50.338 25.201c27.686 13.861 49.923 25.19 49.417 25.174-.506-.015-35.987-6.885-78.845-15.267zm-418.791-88.937c-.175-.457-.898-.69-2.136-.69s-1.96-.234-2.135-.69c-.18-.47-.915-.691-2.288-.691-1.49 0-2.022-.182-2.022-.691 0-.446-.45-.692-1.266-.694-.697 0-1.86-.312-2.585-.69-.726-.378-1.658-.695-2.072-.704-.414-.009-1.582-.415-2.595-.905-1.013-.489-2.256-.903-2.762-.92-.507-.016-1.323-.334-1.815-.706-.491-.372-1.424-.682-2.072-.69-.648-.008-1.58-.32-2.071-.691-.492-.372-1.424-.683-2.072-.69-.648-.009-1.58-.32-2.072-.691-.492-.372-1.45-.676-2.13-.676-.68 0-1.495-.311-1.81-.69-.316-.38-1.185-.691-1.932-.691-.746 0-1.668-.311-2.048-.691-.38-.38-1.312-.69-2.072-.69s-1.692-.311-2.072-.691c-.38-.38-1.4-.69-2.269-.69-1.271 0-1.578-.18-1.578-.922 0-.784-.307-.92-2.072-.92-1.535 0-2.072-.18-2.072-.691 0-.51-.532-.69-2.022-.69-1.374 0-2.108-.222-2.288-.691-.175-.457-.898-.69-2.136-.69s-1.96-.234-2.135-.692c-.151-.393-.838-.69-1.597-.69-.877 0-1.332-.236-1.332-.69 0-.512-.537-.691-2.072-.691-1.535 0-2.072-.18-2.072-.691 0-.512-.538-.69-2.086-.69-1.43 0-2.17-.218-2.351-.691-.162-.422-.86-.69-1.795-.69-.84 0-1.84-.312-2.22-.691-.38-.38-1.223-.691-1.874-.691-.745 0-1.184-.256-1.184-.69 0-.48-.482-.691-1.574-.691-2.028 0-3.03-.397-3.03-1.2 0-.443-.576-.642-1.856-.642-1.225 0-1.946-.235-2.121-.69-.162-.423-.86-.691-1.794-.691-.842 0-1.84-.31-2.22-.69-.38-.38-1.201-.691-1.826-.691-.624 0-1.253-.311-1.4-.69-.164-.43-.866-.692-1.857-.692-.876 0-1.904-.31-2.284-.69-.38-.38-1.14-.69-1.688-.69-.549 0-1.548-.294-2.22-.652-.672-.358-2.569-1.115-4.215-1.683-1.646-.567-3.19-1.207-3.43-1.42-.24-.214-.705-.39-1.031-.39-.884 0-10.477-3.817-10.655-4.24-.085-.2-.571-.364-1.082-.364-.51 0-1.58-.283-2.379-.63-.798-.347-7.764-3.025-15.481-5.95-12.94-4.906-15.923-6.31-13.402-6.31.546 0 .96-.299.96-.692 0-.425.432-.69 1.127-.69.62 0 1.294-.26 1.497-.576.202-.317 1.3-1.053 2.44-1.637 1.14-.583 2.693-1.464 3.453-1.957.76-.493 2.054-1.21 2.877-1.592.823-.383 1.497-.9 1.497-1.15 0-.25.524-.455 1.165-.455s1.285-.31 1.43-.69c.146-.38.554-.69.907-.69s.641-.312.641-.691c0-.46.46-.691 1.381-.691s1.382-.23 1.382-.69c0-.433.436-.691 1.165-.691.641 0 1.285-.311 1.43-.69.146-.38.529-.692.85-.692.322 0 .844-.31 1.159-.69.315-.38.968-.69 1.452-.69.483 0 .998-.312 1.144-.691.145-.38.629-.69 1.074-.69.445 0 1.51-.62 2.368-1.375.857-.755 1.923-1.377 2.369-1.381.445-.004 1.165-.422 1.598-.928.434-.507 1.164-.921 1.622-.921.458 0 .952-.31 1.098-.69.145-.38.738-.691 1.317-.691.58 0 1.172-.311 1.318-.69.145-.38.56-.691.92-.691.361 0 .776-.311.921-.691.146-.38.79-.69 1.43-.69.73 0 1.166-.26 1.166-.691 0-.432.437-.69 1.166-.69.64 0 1.284-.312 1.43-.692.146-.38.632-.69 1.08-.69.449 0 1.074-.31 1.389-.69.315-.38.865-.691 1.222-.691.356 0 .768-.311.913-.69.146-.38.643-.692 1.104-.692.461 0 1.112-.261 1.447-.58.335-.32 1.178-.833 1.875-1.142.696-.308 1.266-.771 1.266-1.03s.317-.47.705-.47c.388 0 .824-.311.97-.691.344-.897 1.548-.897 1.548 0 0 .38.264.69.588.69.323 0 .943.415 1.377.921.433.507 1.1.921 1.483.921.382 0 .695.311.695.69 0 .38.31.691.69.691.38 0 .691.311.691.691 0 .38.311.69.691.69.38 0 .69.311.69.691 0 .38.217.69.48.69.265 0 2.233 1.753 4.375 3.895 2.141 2.141 3.893 4.11 3.893 4.373 0 .265.311.48.691.48.38 0 .69.311.69.691 0 .38.311.69.691.69.38 0 .69.312.69.691 0 .38.312.691.691.691.38 0 .691.31.691.69 0 .38.289.691.641.691.353 0 .761.311.907.69.145.38.582.691.97.691a.7.7 0 0 1 .705.691c0 .38.31.69.69.69.38 0 .691.311.691.691 0 .38.31.69.69.69.38 0 .691.312.691.692 0 .38.311.69.69.69a.7.7 0 0 1 .692.705c0 .388.31.825.69.97.38.146.69.554.69.907 0 .352.311.641.691.641.38 0 .69.31.69.69 0 .38.312.691.692.691.38 0 .69.311.69.69 0 .38.31.691.69.691.38 0 .691.311.691.691 0 .38.289.69.642.69.352 0 .76.311.906.691.146.38.582.69.97.69a.7.7 0 0 1 .705.691c0 .38.311.691.69.691.38 0 .691.31.691.69 0 .38.311.691.691.691.38 0 .69.311.69.69 0 .38.311.692.691.692a.7.7 0 0 1 .69.705c0 .387.312.824.692.97.38.145.69.553.69.906s.31.641.69.641c.38 0 .691.311.691.691 0 .38.311.69.69.69.38 0 .692.311.692.691 0 .38.31.69.69.69.38 0 .69.312.69.691 0 .38.29.691.642.691.353 0 .76.31.906.69.146.38.583.691.97.691a.7.7 0 0 1 .706.69c0 .38.31.691.69.691.38 0 .69.311.69.691 0 .38.312.69.691.69.38 0 .691.311.691.691 0 .38.31.69.69.69a.7.7 0 0 1 .691.706c0 .388.311.824.69.97.38.146.692.554.692.906 0 .353.31.642.69.642.38 0 .69.31.69.69 0 .38.311.691.691.691.38 0 .69.31.69.69 0 .38.312.691.692.691.38 0 .69.311.69.69 0 .38.289.691.642.691.352 0 .76.311.906.691.146.38.582.69.97.69a.7.7 0 0 1 .705.691c0 .38.31.69.69.69.38 0 .691.312.691.691 0 .38.311.691.69.691.38 0 .691.31.691.69 0 .38.311.691.691.691a.7.7 0 0 1 .69.705c0 .388.311.825.691.97.38.146.69.554.69.907 0 .356.46.643 1.037.646.725.004 3.407 2.387 8.938 7.942 4.347 4.366 9.992 9.986 12.546 12.49 2.554 2.503 4.644 4.73 4.644 4.949 0 .698-2.65.432-2.929-.294z" transform="translate(-6.333 -62.18) scale(.26458)"/><path style="fill:none;stroke:#000;stroke-width:.264583px;stroke-linecap:butt;stroke-linejoin:miter;stroke-opacity:1" d="m102.244 77.265 14.577-14.895 25.704 27.165" transform="translate(-6.333 -62.18)"/><path style="fill:#40edeb;fill-opacity:1;stroke:#fc0;stroke-width:0" d="M460.407 313.211c-39.63-11.775-72.128-21.478-72.218-21.563-.263-.249 53.07-54.552 53.45-54.424.19.064 17.982 18.762 39.538 41.552 21.557 22.79 42.298 44.7 46.091 48.688 4.403 4.63 6.59 7.234 6.045 7.204-.469-.027-33.277-9.682-72.906-21.457z" transform="translate(-6.333 -62.18) scale(.26458)"/><path style="fill:none;stroke:#000;stroke-width:.264583px;stroke-linecap:butt;stroke-linejoin:miter;stroke-opacity:1" d="m144.882 156.252 3.124-8.246" transform="translate(-6.333 -62.18)"/><path style="fill:#838347;fill-opacity:1;stroke:#fc0;stroke-width:0" d="m534.772 583.256-10.12-5.095 2.639-1.334c1.45-.733 2.637-1.525 2.637-1.76 0-1.06-1.132-.866-3.87.665l-2.958 1.654-9.053-4.507-9.053-4.507-61.67-67.86c-33.918-37.324-61.58-67.95-61.47-68.06.11-.11 29.484 21.03 65.274 46.98l65.075 47.18 16.088 29.858c8.848 16.422 16.382 30.324 16.742 30.894.36.57.476 1.025.257 1.011-.22-.013-4.952-2.317-10.518-5.12zm-3.507-24.456c-8.761-16.26-15.883-29.623-15.826-29.697.128-.169 41.121 28.752 42.231 29.793.767.72.527 1.505-4.604 15.124-2.977 7.9-5.516 14.36-5.642 14.354-.127-.006-7.398-13.314-16.16-29.574z" transform="translate(-6.333 -62.18) scale(.26458)"/><path style="fill:#4cb6b4;fill-opacity:1;stroke:#fc0;stroke-width:0" d="M597.493 614.617c-26.779-13.407-48.688-24.543-48.688-24.747 0-.583 10.886-29.135 11.146-29.235.128-.05 19.732 13.688 43.565 30.527l43.333 30.617.011 8.633c.006 4.748-.144 8.621-.334 8.607-.19-.014-22.255-10.995-49.033-24.402zm90.96 45.482-39.68-19.87-.29-3.24c-.159-1.781-.224-5.662-.145-8.623l.145-5.385 40.028 28.3c22.015 15.566 40.127 28.4 40.247 28.52.826.826-4.914-1.98-40.305-19.702z" transform="translate(-6.333 -62.18) scale(.26458)"/><path style="fill:#000;fill-opacity:0;stroke:#fc0;stroke-width:0" d="m685.776 337.197-40.055-26.001-.152-1.937c-.457-5.85 3.708-31.63 8.447-52.279l.775-3.38 2.831 4.447c7.152 11.232 26.414 40.627 46.71 71.28 12.204 18.433 22.19 33.61 22.19 33.725 0 .115-.155.195-.345.178-.19-.018-18.37-11.732-40.401-26.033z" transform="translate(-6.333 -62.18) scale(.26458)"/><path style="fill:#000;fill-opacity:0;stroke:#fc0;stroke-width:0" d="m685.776 337.197-40.055-26.001-.152-1.937c-.457-5.85 3.708-31.63 8.447-52.279l.775-3.38 2.831 4.447c7.152 11.232 26.414 40.627 46.71 71.28 12.204 18.433 22.19 33.61 22.19 33.725 0 .115-.155.195-.345.178-.19-.018-18.37-11.732-40.401-26.033z" transform="translate(-6.333 -62.18) scale(.26458)"/><path style="fill:#3f4e51;fill-opacity:1;stroke:#fc0;stroke-width:0" d="m458.089 545.013-41.683-20.742-19.551-46.502c-10.754-25.575-19.626-46.82-19.717-47.208-.09-.39 26.92 29.113 60.021 65.56 33.102 36.446 60.93 67.043 61.838 67.992.909.95 1.455 1.708 1.213 1.684-.241-.023-19.196-9.376-42.121-20.784zm227.687-207.816-40.055-26.001-.152-1.937c-.457-5.85 3.708-31.63 8.447-52.279l.775-3.38 2.831 4.447c7.152 11.232 26.414 40.627 46.71 71.28 12.204 18.433 22.19 33.61 22.19 33.725 0 .115-.155.195-.345.178-.19-.018-18.37-11.732-40.401-26.033z" transform="translate(-6.333 -62.18) scale(.26458)"/><path style="fill:#838347;fill-opacity:1;stroke:#fc0;stroke-width:0" d="m637.362 305.795-6.057-3.998 2.304-5.065c6.459-14.197 14.787-32.82 16.757-37.468 1.221-2.882 2.292-5.025 2.38-4.763.087.263-.568 3.864-1.455 8.003-3.852 17.96-6.581 34.461-7.05 42.63-.149 2.596-.395 4.706-.547 4.69-.151-.018-3.001-1.83-6.332-4.03z" transform="translate(-6.333 -62.18) scale(.26458)"/><path style="fill:#4cb6b4;fill-opacity:1;stroke:#fc0;stroke-width:0" d="M133.369 569.977c-57.69-9.065-104.98-16.57-105.086-16.677-.228-.228 48.727-28.897 49.34-28.896.23.001 36.88 13.98 81.448 31.064 44.567 17.085 80.617 31.047 80.11 31.028-.506-.02-48.122-7.453-105.812-16.519z" transform="translate(-6.333 -62.18) scale(.26458)"/></g><path style="fill:none;stroke:#000;stroke-width:.264583px;stroke-linecap:butt;stroke-linejoin:miter;stroke-opacity:1" d="M110.083 139.025 98.971 112.58l34.369 37.814m-67.79 5.342 9.13 8.872-10.163 6.03 30.664 21.447 71.925-24.549m28.511 14.041-43.758-8.528m24.721-24.463-5.254 15.505m-.775-81.4-24.721 63.311" transform="translate(-6.333 -62.18)"/></svg>