<svg width="637.127" height="325.002" viewBox="0 0 168.573 85.99" xmlns="http://www.w3.org/2000/svg"><path style="fill:none;stroke:#000;stroke-width:.264583px;stroke-linecap:butt;stroke-linejoin:miter;stroke-opacity:1" d="m124.037 138.077 28.425-27.219s7.408 22.826 7.15 23.43c-.259.602-18.003 19.466-18.003 19.466l-6.116-26.1-96.387-7.58 24.377-15.418-27.392-1.722-41.69 25.152 12.06 13.523" transform="translate(8.818 -102.799)"/><path style="fill:none;stroke:#000;stroke-width:.264583px;stroke-linecap:butt;stroke-linejoin:miter;stroke-opacity:1" d="M39.106 120.075c-2.842 1.292-47.547 31.44-47.547 31.44l69.426 7.063 3.1 30.062s-69.253-7.58-68.823-8.442c.431-.861-3.703-29.2-3.703-29.2" transform="translate(8.818 -102.799)"/><path style="fill:none;stroke:#000;stroke-width:.264583px;stroke-linecap:butt;stroke-linejoin:miter;stroke-opacity:1" d="m2.756 152.72 3.015 20.76 57.023 6.03" transform="translate(8.818 -102.799)"/><path style="fill:none;stroke:#000;stroke-width:.264583px;stroke-linecap:butt;stroke-linejoin:miter;stroke-opacity:1" d="M-4.651 180.285c.603-.776 35.66-24.808 35.66-24.808M39.106 120.075l34.283 28.597 2.842 27.478M6.46 141.609l48.323-8.097M64.086 188.64l50.39-48.668" transform="translate(8.818 -102.799)"/><path style="fill:none;stroke:#000;stroke-width:.264583px;stroke-linecap:butt;stroke-linejoin:miter;stroke-opacity:1" d="M73.389 148.672c2.067-.086 50.648-10.595 50.648-10.595l17.572 15.677M103.795 125.07l20.328-17.313 28.34 3.101M101.642 124.898l-40.657 33.68M63.483 104.656l2.929 18.261M39.106 120.075l-28.425-2.067" transform="translate(8.818 -102.799)"/><path style="fill:#f7f54e;fill-opacity:1;stroke:#fc0;stroke-width:0" d="M3.52 510.717a52517.263 52517.263 0 0 0-22.147-24.824l-1.46-1.627 31.124-18.749 31.123-18.749 51.61 3.768 51.612 3.769-5.545 3.45c-12.16 7.565-39.775 25.72-84.725 55.7-16.87 11.252-30.725 20.458-30.79 20.458-.064 0-9.425-10.438-20.803-23.196zM27.526 533.621c.442-.417 67.426-45.021 81.151-54.038 24.952-16.392 38.334-24.866 39.017-24.708.217.05 13.57 11.078 29.677 24.507 24.818 20.694 29.177 24.453 28.588 24.65-.75.25-177.547 29.881-178.293 29.881-.278 0-.331-.111-.14-.292zM164.732 592.018c-35.543-3.635-93.866-9.582-129.607-13.217l-64.984-6.608 2.64-1.823c1.452-1.002 13.554-9.147 26.893-18.1l24.254-16.277 4.233-.719c2.327-.395 43.556-7.304 91.618-15.353 48.063-8.05 87.48-14.787 87.594-14.972.165-.266 32.125 26.137 63.902 52.792l4.15 3.482-22.615 18.738c-12.438 10.306-22.804 18.722-23.035 18.702-.231-.02-29.5-3.01-65.043-6.645zM213.385 507.61c-51.065-42.6-62.955-52.662-62.31-52.734.439-.05 21.307 1.524 46.375 3.498 25.068 1.974 46.677 3.67 48.02 3.769 4.406.325 4.507.36 4.744 1.625.223 1.19.354 1.29 1.078.831.307-.194.38-.571.227-1.178l-.224-.893 1.564.188c.86.103 30.168 2.428 65.129 5.166 34.96 2.738 63.565 5.08 63.565 5.203 0 .186-102.769 85.508-104.52 86.777-.467.338-9.283-6.899-63.648-52.252zM277.879 560.985c.17-.151 23.823-19.73 52.561-43.51 28.739-23.778 52.55-43.501 52.914-43.828.642-.576 2.433-.454 60.553 4.112 32.94 2.588 60.929 4.818 62.196 4.955l2.303.25-19.978 19.147-19.978 19.148-17.811 3.846c-10.212 2.205-17.941 3.726-18.116 3.564-.175-.161-.522-.09-.814.17-.482.427-7.33 1.927-59.598 13.052-48.057 10.229-92.568 19.369-94.322 19.369-.12 0-.08-.124.09-.275z" transform="matrix(.26458 0 0 .26458 8.818 -102.799)"/><path style="fill:none;stroke:#000;stroke-width:.264583px;stroke-linecap:butt;stroke-linejoin:miter;stroke-opacity:1" d="m56.85 178.82 5.944.69 1.292 9.13" transform="translate(8.818 -102.799)"/><path style="fill:#f7f54e;fill-opacity:1;stroke:#fc0;stroke-width:0" d="M206.891 708.405C94.383 695.749 30.145 688.09-.814 683.642c-6.267-.9-14.242-2.274-14.719-2.536-.444-.243 1.664-1.822 14.72-11.018 21.242-14.965 21.803-15.338 21.911-14.556.084.606.366.751 1.79.918.93.11 48.205 5.107 105.056 11.105 115.357 12.17 108.382 11.42 108.66 11.698.266.266 4.886 33.076 4.65 33.031-.098-.019-15.562-1.765-34.363-3.88z" transform="matrix(.26458 0 0 .26458 8.818 -102.799)"/><path style="fill:#49f8fb;fill-opacity:1;stroke:#fc0;stroke-width:0" d="M227.401 676.649c-4.834-.593-10.181-1.174-11.882-1.29-1.701-.117-45.78-4.725-97.952-10.24-70.84-7.49-94.93-10.14-95.142-10.47-.192-.3-.05-.637.44-1.043 1.055-.877 35.63-24.756 86.02-59.412 5.357-3.684 8.406-5.585 8.952-5.58 1.74.013 111.709 11.307 111.893 11.49.106.107 1.923 17.012 4.037 37.566 2.115 20.555 3.925 37.995 4.023 38.756.218 1.68 1.3 1.656-10.389.223zM96.202 449.43c-27.396-2.017-50.316-3.721-50.935-3.787-1.017-.107 2.412-2.252 35.812-22.397a83448.475 83448.475 0 0 0 46.248-27.91l9.312-5.632 50.346 3.166c27.69 1.742 50.346 3.243 50.346 3.337 0 .093-20.204 12.95-44.897 28.569-28.978 18.33-45.167 28.386-45.66 28.361-.419-.02-23.176-1.688-50.572-3.706zM450.364 476.992c-30.821-2.446-56.065-4.567-56.097-4.714-.032-.148 16.863-14.679 37.544-32.292l37.601-32.024 47.47 5.2a96725.59 96725.59 0 0 0 52.653 5.759l5.183.559-32.3 30.928-32.301 30.928-1.857.051c-1.021.028-27.074-1.95-57.896-4.395z" transform="matrix(.26458 0 0 .26458 8.818 -102.799)"/><path style="fill:#1a575b;fill-opacity:1;stroke:#fc0;stroke-width:0" d="M16.59 615.058c-5.252-36.146-5.365-37.034-4.708-37.128.582-.083 97.903 9.683 101.675 10.203l1.403.194-3.845 2.636c-13.895 9.53-61.673 42.446-73.917 50.926-8.1 5.61-14.84 10.201-14.978 10.201-.138 0-2.672-16.664-5.63-37.032zM199.803 457.262c-41.124-3.243-49.637-3.995-49.166-4.339 1.559-1.14 88.693-56.129 88.778-56.026.16.195 10.349 64.142 10.232 64.218-.06.038-22.489-1.696-49.844-3.853zM535.416 578.921c-.257-.866-22.664-96.614-22.664-96.847 0-.111-.216-.25-.48-.308-.44-.096 62.961-61.131 63.55-61.177.138-.01.633 1.2 1.1 2.691.468 1.491 3.52 11.062 6.781 21.268 9.568 29.938 17.144 54.809 18.573 60.967l.398 1.715-1.58 1.853c-4.783 5.605-64.98 70.408-65.403 70.408-.059 0-.182-.256-.275-.57z" transform="matrix(.26458 0 0 .26458 8.818 -102.799)"/><path style="fill:#475022;fill-opacity:1;stroke:#fc0;stroke-width:0" d="M502.015 550.547c-17.453-15.568-31.778-28.444-31.835-28.614-.057-.17 8.909-8.935 19.923-19.477 14.35-13.734 20.234-19.167 20.76-19.167.705 0 1.142 1.748 11.88 47.531 6.132 26.142 11.116 47.644 11.076 47.782-.04.137-14.352-12.487-31.804-28.055zM237.05 656.24c-3.11-30.305-5.72-55.407-5.802-55.783-.124-.571 3.588-3.78 22.531-19.476 12.474-10.335 22.75-18.723 22.834-18.638.084.084 2.56 23.412 5.5 51.839 2.942 28.426 5.402 51.738 5.467 51.804.066.065.365.024.666-.091.457-.176.513-.509.344-2.043-.762-6.925-10.468-101.141-10.424-101.198.03-.038 3.93-.804 8.666-1.7 16.253-3.078 65.985-13.48 122.881-25.705 10.744-2.308 19.57-4.163 19.616-4.122.09.082-186.126 180.001-186.436 180.132-.105.045-2.734-24.714-5.843-55.019zM-17.255 678.164c0-5.6-4.499-41.04-10.894-85.813-1.483-10.386-2.679-18.896-2.656-18.912.126-.09 40.37 4.114 40.486 4.23.282.282 11.104 75.567 10.888 75.752-.122.105-5.35 3.761-11.616 8.124-10.69 7.442-22.76 15.99-25.15 17.813l-1.058.807z" transform="matrix(.26458 0 0 .26458 8.818 -102.799)"/></svg>