<svg width="685" height="307" viewBox="0 0 181.24 81.227" xmlns="http://www.w3.org/2000/svg"><g style="display:inline"><path style="fill:none;stroke:#000;stroke-width:.264583px;stroke-linecap:butt;stroke-linejoin:miter;stroke-opacity:1" d="m90.022 94.164 67.73 37.154L146.3 153 87.464 92.336l-21.562-7.552L9.867 79.91-19.49 93.676l67.121 43.245 39.103-31.55-52.137-17.42" transform="translate(21.021 -77.222)"/><path style="fill:none;stroke:#000;stroke-width:.264583px;stroke-linecap:butt;stroke-linejoin:miter;stroke-opacity:1" d="m-6.944 91.971 62.005 39.956-.731 16.445" transform="translate(21.021 -77.222)"/><path style="fill:none;stroke:#000;stroke-width:.264583px;stroke-linecap:butt;stroke-linejoin:miter;stroke-opacity:1" d="m47.63 136.921.122 18.15 19.125-20.22 71.993 10.72" transform="translate(21.021 -77.222)"/><path style="fill:none;stroke:#000;stroke-width:.264583px;stroke-linecap:butt;stroke-linejoin:miter;stroke-opacity:1" d="M61.03 140.576 146.3 153l11.45-21.683-70.287-38.982s4.02-4.141 5.36-3.776c1.34.366 15.47 15.714 15.47 15.714M92.946 88.438 71.14 81.617l-5.239 3.167m5.239-3.167-18.028 2.07" transform="translate(21.021 -77.222)"/><path style="fill:none;stroke:#000;stroke-width:.264583px;stroke-linecap:butt;stroke-linejoin:miter;stroke-opacity:1" d="m105.127 110.487-7.796-2.924-30.454 27.287M-19.49 93.676l85.392-8.892m20.831 20.586 3.41 9.137" transform="translate(21.021 -77.222)"/><path style="fill:#ff0;stroke:#fc0;stroke-width:0" d="M54.438 435.645c-69.037-44.48-125.461-80.935-125.387-81.009.186-.186 43.932-4.725 45.544-4.726.944 0 32.1 19.845 113.951 72.583 61.959 39.92 113.311 73.028 114.117 73.57l1.465.988-9.954 8.036c-5.474 4.42-10.912 8.8-12.083 9.734l-2.13 1.697zm336.447 118.324c-86.096-12.557-156.62-22.891-156.72-22.965-.248-.184 4.608-5.515 12.467-13.684l6.592-6.852 135.946 20.25c128.874 19.196 136.009 20.308 137.134 21.355.653.608 6.37 6.44 12.704 12.961 11.05 11.374 11.455 11.854 9.967 11.81-.853-.024-71.994-10.318-158.09-22.875z" transform="translate(21.021 -77.222) scale(.26458)"/><path style="fill:#3deeee;fill-opacity:1;stroke:#fc0;stroke-width:0" d="M91.94 422.82C29.59 382.644-21.323 349.67-21.2 349.547c.124-.125 34.52-3.8 76.437-8.168l76.21-7.942 97.386 32.551 97.387 32.551-60.154 48.545c-33.084 26.7-60.29 48.6-60.459 48.666-.167.067-51.318-32.75-113.668-72.928zm366.395 116.746a127482.82 127482.82 0 0 0-132.597-19.753c-37.604-5.579-68.965-10.298-69.691-10.488-1.265-.33.492-1.97 41.071-38.325 23.316-20.889 42.764-37.981 43.218-37.983.454-.002.829-.33.833-.73.004-.398 5.287-5.453 11.74-11.233s12.478-11.214 13.389-12.076l1.656-1.567 14.294 5.358 14.294 5.357 55.183 56.913c30.35 31.303 58.99 60.81 63.642 65.57 4.653 4.761 8.175 8.636 7.827 8.612-.348-.025-29.534-4.37-64.859-9.655z" transform="translate(21.021 -77.222) scale(.26458)"/><path style="fill:#40cece;fill-opacity:1;stroke:#fc0;stroke-width:0" d="M291.207 334.448c-21.144-7.435-38.83-13.688-39.3-13.895-.687-.301.93-1.457 8.126-5.812l8.983-5.436L308.31 321.6c21.613 6.762 39.357 12.35 39.432 12.42.075.068-.858.697-2.072 1.396-2.79 1.607-9.787 7.255-12.78 10.316-1.256 1.285-2.5 2.314-2.762 2.286-.263-.027-17.778-6.133-38.922-13.569zM444.106 464.9c-59.494-61.34-108.104-111.597-108.02-111.68.084-.084 1 .28 2.038.81 1.153.588 1.886 1.284 1.886 1.791 0 .628 30.896 17.775 127.418 70.717 70.08 38.438 127.484 69.946 127.565 70.02.264.237-41.945 79.871-42.335 79.871-.209 0-49.057-50.188-108.552-111.529zm-77.683-96.916-34.592-19.2 3.24-3.005c5.081-4.715 9.068-7.76 12.182-9.3 2.663-1.319 2.945-1.37 3.939-.72 3.607 2.364 21.422 20.283 42.445 42.694a1728.01 1728.01 0 0 0 5.97 6.332c1.263 1.33 2.097 2.413 1.852 2.408-.245-.005-16.011-8.65-35.036-19.209zM-68.332 352.49c.105-.1 23.914-11.318 52.908-24.93l52.717-24.747 73.205 6.323c40.262 3.477 77.659 6.72 83.103 7.205 5.444.486 18.046 1.589 28.005 2.45 9.958.863 18.175 1.639 18.261 1.725.086.087-59.29 6.344-131.947 13.906C2.437 345.4-24.32 348.057-24.862 347.607c-.765-.635-2.286-.258-1.844.457.158.255.005.464-.339.464-.344 0-9.524.932-20.4 2.072-20.155 2.111-21.223 2.208-20.887 1.89zm296.233-34.583c-9.116-.824-17.092-1.575-17.725-1.668-.633-.093 11.245-1.585 26.397-3.315 15.151-1.73 27.643-3.05 27.76-2.934.117.117-3.267 2.31-7.52 4.873-7.203 4.34-7.89 4.656-10.035 4.601-1.266-.032-9.76-.732-18.877-1.557z" transform="translate(21.021 -77.222) scale(.26458)"/><path style="fill:#3deeee;fill-opacity:1;stroke:#fc0;stroke-width:0" d="M319.983 344.317c-42.512-14.953-66.852-23.567-67.343-23.833-.78-.423.789-1.55 9.394-6.747l6.986-4.22 28.934 9.074c47.342 14.845 48.963 15.363 48.939 15.634-.013.143-1.736 1.452-3.83 2.908-2.092 1.456-5.807 4.409-8.254 6.56-2.448 2.153-4.713 3.902-5.034 3.888-.321-.014-4.728-1.483-9.792-3.264z" transform="translate(21.021 -77.222) scale(.26458)"/><path style="fill:#404e51;fill-opacity:1;stroke:#fc0;stroke-width:0" d="M206.343 555.135c.087-1.329.688-14.637 1.338-29.573l1.18-27.156-.967-.783c-.951-.77-.834-.891 6.988-7.219 75.308-60.929 112.49-90.664 112.762-90.179.174.311 2.849 7.369 5.945 15.684l5.628 15.12-1.56 1.506c-.858.83-20.414 18.382-43.457 39.007-37.36 33.438-43.016 38.682-52.23 48.418-6.112 6.457-10.58 10.824-10.935 10.688-.364-.14-.601.113-.601.64 0 .507-5.016 6.165-12.028 13.568-6.616 6.983-12.071 12.697-12.124 12.697-.052 0-.025-1.088.061-2.418z" transform="translate(21.021 -77.222) scale(.26458)"/><path style="fill:#540;fill-opacity:1;stroke:#fc0;stroke-width:0" d="M181.17 572.361c0-6.289-.137-21.067-.304-32.84l-.304-21.407 12.331-9.977c6.783-5.487 12.592-9.977 12.91-9.977 1.55 0 1.557 1.022.2 31.238l-1.35 30.065-11.562 12.166c-6.36 6.692-11.643 12.167-11.742 12.167-.098 0-.179-5.146-.179-11.435z" transform="translate(21.021 -77.222) scale(.26458)"/></g></svg>