<svg width="524.765" height="258.754" viewBox="0 0 138.844 68.462" xmlns="http://www.w3.org/2000/svg"><path style="fill:none;stroke:#000;stroke-width:.264583px;stroke-linecap:butt;stroke-linejoin:miter;stroke-opacity:1" d="m69.168 150.05 56.936 15.505 22.224 3.704-26.961-7.925" transform="translate(-48.722 -112.431)"/><path style="fill:none;stroke:#000;stroke-width:.264583px;stroke-linecap:butt;stroke-linejoin:miter;stroke-opacity:1" d="m122.917 164.694-6.546-13.954-33.766-23.947-33.593-8.355 20.156 31.612M82.605 126.793l17.142 31.785" transform="translate(-48.722 -112.431)"/><path style="fill:none;stroke:#000;stroke-width:.264583px;stroke-linecap:butt;stroke-linejoin:miter;stroke-opacity:1" d="m116.37 150.74-5.34 4.565 4.48 7.752M139.456 167.88l-.086 10.423M133.684 167.02l-.344 9.302M126.104 165.555l-.172 8.786" transform="translate(-48.722 -112.431)"/><path style="fill:none;stroke:#000;stroke-width:.264583px;stroke-linecap:butt;stroke-linejoin:miter;stroke-opacity:1" d="m148.242 180.715 4.479-13.093L177.27 154.1s10.164-11.284 10.164-13.696c0-2.412-11.112-20.931-11.112-20.931l-28.08-6.891-21.62 29.114-13.352 6.719M126.621 141.695 177.27 154.1M152.72 167.622l-32.387-9.13" transform="translate(-48.722 -112.431)"/><path style="fill:none;stroke:#000;stroke-width:.264583px;stroke-linecap:butt;stroke-linejoin:miter;stroke-opacity:1" d="m148.328 169.259-.086 11.456-51.94-15.849-.432-7.666" transform="translate(-48.722 -112.431)"/><path style="fill:#f0ee40;fill-opacity:1;stroke:#fc0;stroke-width:0" d="M575.162 558.515c-51.353-12.589-93.816-23.018-94.362-23.176l-.993-.286 40.25-54.206c22.508-30.313 40.495-54.244 40.807-54.294.419-.067 97.376 23.557 103.966 25.331 1.145.309 1.439.735 6.884 10.004 17.473 29.738 30.846 54.424 34.607 63.886 1.742 4.382 1.706 5.595-.28 9.485-3.662 7.177-15.36 22.411-30.933 40.283-3.837 4.404-5.325 5.897-5.86 5.882-.394-.012-42.733-10.32-94.086-22.91zM516.028 615.585c-45.21-12.754-61.086-17.112-61.269-16.816-.135.22-.307.33-.382.246-.074-.084-3.256-6.822-7.07-14.972l-6.937-14.818-5.48-3.876c-3.014-2.132-5.48-3.966-5.48-4.075 0-.109 11.097-5.783 24.66-12.61l24.661-12.412 94.493 23.154c51.971 12.735 94.491 23.233 94.489 23.329-.003.132-74.08 41.057-88.191 48.723l-2.473 1.343zM561.098 659.248c.125-11.569.089-19.537-.09-19.791-.163-.234-22.991-7.084-50.728-15.222-27.737-8.139-50.626-14.907-50.865-15.04-.398-.223-4.747-9.188-4.54-9.359.103-.085 121.141 34.025 121.304 34.185.114.112-14.902 44.17-15.145 44.435-.08.087-.05-8.557.064-19.208z" transform="matrix(.26458 0 0 .26458 -48.722 -112.431)"/><path style="fill:#9da03d;fill-opacity:1;stroke:#fc0;stroke-width:0" d="m489.543 660.768-12.954-3.957.177-6.837c.098-3.76.266-10.582.374-15.16l.196-8.324 13.557 2.256c7.457 1.24 13.598 2.293 13.648 2.338.113.1-.834 26.556-1.099 30.691-.126 1.98-.321 3.001-.569 2.981-.207-.017-6.205-1.812-13.33-3.988zM515.356 668.597c-5.819-1.773-10.61-3.252-10.646-3.285-.093-.085 1.206-33.84 1.306-33.941.046-.046 4.657.676 10.246 1.604l10.163 1.687-.045 7.981c-.025 4.39-.135 12.751-.244 18.58l-.199 10.599z" transform="matrix(.26458 0 0 .26458 -48.722 -112.431)"/><path style="fill:#9d9e45;fill-opacity:1;stroke:#fc0;stroke-width:0" d="M543.42 677.176c-8.649-2.653-15.804-4.904-15.901-5.002-.098-.097-.07-8.541.063-18.764.217-16.84.289-18.575.762-18.442.288.081 7.37 1.283 15.738 2.671 8.369 1.389 15.38 2.626 15.58 2.75.266.164.298 5.794.122 20.938-.133 11.393-.331 20.705-.441 20.694-.11-.01-7.275-2.19-15.923-4.845z" transform="matrix(.26458 0 0 .26458 -48.722 -112.431)"/><path style="fill:#439d9e;fill-opacity:1;stroke:#fc0;stroke-width:0" d="M510.961 630.749c-29.11-4.902-36.409-6.233-40.625-7.413-2.827-.791-5.194-1.494-5.262-1.562-.458-.463-4.942-10.562-4.725-10.643.212-.079 80.725 23.465 86.098 25.178.716.229 1.01.415.651.415-.358 0-16.62-2.69-36.137-5.975zM419.805 639.476c-30.26-9.24-55.057-16.824-55.103-16.854-.086-.056-1.664-26.98-1.586-27.058.111-.11 12.542 3.402 12.938 3.655.249.16.766.297 1.15.306.384.01 13.598 3.526 29.365 7.816 25.52 6.942 28.704 7.879 29.002 8.531.382.834.765.92 1.384.307.355-.351 3.816.49 19.738 4.802L476 626.208l-.187 8.79c-.31 14.51-.56 21.326-.78 21.301-.115-.013-24.967-7.583-55.228-16.823z" transform="matrix(.26458 0 0 .26458 -48.722 -112.431)"/><path style="fill:#4d4f41;fill-opacity:1;stroke:#fc0;stroke-width:0" d="m405.237 605.594-28.242-7.709-31.126-57.724c-17.12-31.748-31.05-57.8-30.959-57.891.176-.176 123.572 87.157 123.6 87.478.008.102-4.371 3.911-9.732 8.464-5.36 4.553-9.755 8.45-9.766 8.66-.011.21 3.143 5.85 7.01 12.534 7.868 13.601 8.063 13.952 7.71 13.92-.14-.012-12.962-3.492-28.495-7.732z" transform="matrix(.26458 0 0 .26458 -48.722 -112.431)"/><path style="fill:#4d4f41;fill-opacity:1;stroke:#fc0;stroke-width:0" d="M449.609 617.674c-7.423-2.034-13.529-3.731-13.568-3.77-.14-.14-15.422-26.64-15.422-26.742 0-.14 18.542-15.95 18.83-16.056.201-.074 23.915 50.111 23.731 50.222-.042.025-6.149-1.62-13.571-3.654z" transform="matrix(.26458 0 0 .26458 -48.722 -112.431)"/><path style="fill:#3e4c52;fill-opacity:1;stroke:#fc0;stroke-width:0" d="M369.67 595.88c-2.865-.788-6.82-1.866-8.79-2.394-1.97-.528-25.044-6.804-51.276-13.946l-47.694-12.986-37.457-58.724c-20.6-32.299-37.302-58.765-37.113-58.814.38-.099 124.133 30.661 124.39 30.918.267.267 63.313 117.245 63.228 117.315-.044.035-2.423-.58-5.288-1.369z" transform="matrix(.26458 0 0 .26458 -48.722 -112.431)"/></svg>