<svg width="646.385" height="394.526" viewBox="0 0 171.023 104.385" xmlns="http://www.w3.org/2000/svg"><path style="fill:none;stroke:#000;stroke-width:.264583px;stroke-linecap:butt;stroke-linejoin:miter;stroke-opacity:1" d="M55.73 136.7c-1.464.774-40.656 52.457-40.656 52.457l-10.423-53.32 37.298-12.403 14.47 12.835" transform="translate(-4.5 -123.285)"/><path style="fill:none;stroke:#000;stroke-width:.264583px;stroke-linecap:butt;stroke-linejoin:miter;stroke-opacity:1" d="M34.972 163.316c-1.637-1.637-30.32-27.478-30.32-27.478M15.074 189.157 35.058 227.4l58.228-95.095-36.866 3.963" transform="translate(-4.5 -123.285)"/><path style="fill:none;stroke:#000;stroke-width:.264583px;stroke-linecap:butt;stroke-linejoin:miter;stroke-opacity:1" d="m35.058 227.401 6.288-60.812 10.508 1.636M35.058 227.401c1.378-2.325 21.017-71.149 21.017-71.149l13.868 14.816 4.22 11.542" transform="translate(-4.5 -123.285)"/><path style="fill:none;stroke:#000;stroke-width:.264583px;stroke-linecap:butt;stroke-linejoin:miter;stroke-opacity:1" d="m35.058 227.401 78.729-90.616 35.316 23.343-34.713 53.922-79.332 13.351" transform="translate(-4.5 -123.285)"/><path style="fill:none;stroke:#000;stroke-width:.264583px;stroke-linecap:butt;stroke-linejoin:miter;stroke-opacity:1" d="m35.058 227.401 68.737-45.394-16.883-6.546M103.795 182.007l-21.362-1.895M91.736 162.713l40.57 24.549 43.069-9.39" transform="translate(-4.5 -123.285)"/><path style="fill:none;stroke:#000;stroke-width:.264583px;stroke-linecap:butt;stroke-linejoin:miter;stroke-opacity:1" d="M35.058 227.401c6.288-4.823 59.951-60.554 59.951-60.554l-14.902 8.958M76.748 180.026l-.086-20.673M91.736 162.713l1.55-30.407M34.972 163.316l19.38-2.068M60.21 160.731c.861.345 16.452-1.378 16.452-1.378M114.39 214.05l60.985-36.177-4.393-23.171-21.879 5.426" transform="translate(-4.5 -123.285)"/><path style="fill:#e0de42;fill-opacity:1;stroke:#000;stroke-width:.264583px;stroke-linecap:butt;stroke-linejoin:miter;stroke-opacity:1" d="m51.682 171.843-10.336-5.254" transform="translate(-4.5 -123.285)"/><path style="fill:#e0de42;fill-opacity:1;stroke:#fc0;stroke-width:0" d="M134.39 614.551c.874-1.109 7.5-9.707 14.726-19.108 28.175-36.655 52.107-67.128 58.848-74.93 2.025-2.345 2.934-3.639 2.8-3.988-.11-.285-.319-.518-.466-.518-1.184 0-23.817 28.562-63.515 80.152-13.324 17.316-15.26 19.696-15.639 19.235-.952-1.158-37.489-34.326-87.768-79.677-13.293-11.99-24.168-21.878-24.168-21.975 0-.097 31.318-10.583 69.594-23.302l69.594-23.126 27.29 24.211 27.29 24.212 68.833-7.399c37.858-4.069 68.913-7.318 69.01-7.22.128.128-60.594 99.739-61.224 100.436-.104.115-18.864 2.1-29.8 3.152-14.315 1.377-24.365 2.133-28.154 2.116l-3.588-.016-7.977-8.592c-4.387-4.726-8.118-8.553-8.291-8.506-.174.047-1.531 4.324-3.016 9.503-3.183 11.107-2.98 10.492-3.295 9.983-.186-.3-8.585.492-35.387 3.338-19.329 2.052-35.626 3.8-36.215 3.883l-1.072.153zM469.941 688.725c-15.399-9.322-49.284-29.83-75.3-45.573-42.298-25.595-47.293-28.702-47.206-29.365.13-.994 82.58-95.887 83.07-95.607.417.237 121.889 80.471 128.07 84.592l3.99 2.659-31.945 49.618c-17.57 27.29-32.11 49.845-32.313 50.122-.314.43-4.435-1.96-28.366-16.446zM499.811 706.894c-.224-.09-.407-.3-.407-.465 0-.396 64.08-99.984 64.606-100.405.462-.37 81.506-20.535 81.674-20.322.154.194 16.179 85 16.176 85.603-.002.395-16.368 4.062-80.497 18.036-44.272 9.647-80.64 17.58-80.82 17.628-.179.049-.508.015-.732-.075z" transform="matrix(.26458 0 0 .26458 -4.5 -123.285)"/><path style="fill:#41d0d0;fill-opacity:1;stroke:#fc0;stroke-width:0" d="M57.14 712.237c-.79-3.393-38.25-195.84-38.183-196.16.086-.41 15.188 13.122 69.095 61.917 34.071 30.84 42.496 38.564 42.496 38.964 0 .175-6.858 9.287-15.24 20.248a26175.726 26175.726 0 0 0-49.01 64.287c-4.793 6.312-8.776 11.476-8.85 11.476-.076 0-.214-.33-.308-.732z" transform="matrix(.26458 0 0 .26458 -4.5 -123.285)"/><path style="fill:none;stroke:#000;stroke-width:.264583px;stroke-linecap:butt;stroke-linejoin:miter;stroke-opacity:1" d="m51.854 168.225 1.292-1.55" transform="translate(-4.5 -123.285)"/><path style="fill:#41d0d0;fill-opacity:1;stroke:#fc0;stroke-width:0" d="M94.924 786.046C62.567 724.121 57.918 715.048 58.26 714.5c.59-.945 36.958-48.726 64.638-84.923 5.013-6.556 9.21-11.865 9.325-11.797.115.067 16.594-1.625 36.62-3.76 20.026-2.135 36.472-3.821 36.545-3.748.074.074-1.123 4.537-2.66 9.916l-2.795 9.782-2.173 2.606c-1.49 1.785-2.342 2.557-2.707 2.45-1.1-.32-39.137-6.133-39.27-6-.076.076-5.422 51.261-11.88 113.745-6.458 62.483-11.782 113.738-11.832 113.9-.05.162-16.766-31.62-37.147-70.625zM246.35 626.29l-16.826-17.987 2.357-.07c6.224-.187 22.304-1.575 42.816-3.698 7.032-.727 13.007-1.276 13.276-1.22.347.074-3.142 6.053-11.973 20.518-6.854 11.228-12.543 20.42-12.643 20.429-.1.008-7.753-8.08-17.007-17.972zM136.245 857.915c.253-.249 214.023-141.48 249.819-165.047 4.182-2.753 7.541-5.068 7.466-5.144-.098-.097-49.325-19.263-63.822-24.848-.598-.23 1.05-1.998 21.612-23.189 7.447-7.675 8.355-8.723 7.987-9.226-.377-.516-2.828.885-27.03 15.451-14.637 8.81-26.686 15.947-26.774 15.858-.128-.127 37.63-43.887 39.942-46.292.564-.586.647-.594 1.024-.102.227.294 34.107 20.917 75.29 45.828 41.183 24.912 74.996 45.41 75.141 45.554.145.143-14.41 23.054-32.346 50.914l-32.61 50.654-1.674.333c-.921.183-67.087 11.328-147.036 24.766-79.948 13.438-145.8 24.518-146.337 24.622-.644.125-.866.08-.652-.132z" transform="matrix(.26458 0 0 .26458 -4.5 -123.285)"/><path style="fill:#3eedec;fill-opacity:1;stroke:#fc0;stroke-width:0" d="M435.34 805.672c6.351-9.894 62.905-97.79 62.98-97.885.06-.075.456.05.88.277.677.362 10.454-1.698 79.439-16.738 43.266-9.432 78.804-17.102 78.971-17.043.302.107-222.01 132.121-222.491 132.121-.138 0-.038-.33.22-.732zM348.256 683.354c-19.477-1.745-35.5-3.261-35.606-3.368-.184-.183 15.164-16.182 15.511-16.17.09.003 13.348 5.127 29.463 11.385 25.091 9.745 29.066 11.376 27.672 11.354-.895-.015-17.563-1.455-37.04-3.2zM143.896 850.295c8.898-8.314 41.606-40.786 65.689-65.215 40.02-40.596 42.483-43.107 69.087-70.483 12.79-13.16 25.314-26.023 27.833-28.583l4.58-4.655 39.595 3.508 39.596 3.508-1.025.693c-7.026 4.755-246.736 162.912-246.908 162.907-.13-.004.568-.76 1.553-1.68zM133.918 852.47c1.273-13.654 22.86-221.135 23.028-221.332.335-.393 37.086 18.352 37.086 18.915 0 .513-.434 2.035-11.117 38.988-25.58 88.477-44.445 151.949-48.285 162.453-.733 2.005-.819 2.122-.712.976zM177.754 639.792c-9.042-4.6-16.22-8.407-15.952-8.459.269-.052 8.013 1.077 17.21 2.51 11.841 1.844 16.893 2.512 17.31 2.289.324-.173 1.059-.866 1.633-1.538.574-.673.971-1.004.883-.735-.088.269-.7 2.393-1.36 4.72-2.037 7.186-2.807 9.605-3.05 9.59-.128-.008-7.632-3.777-16.674-8.377z" transform="matrix(.26458 0 0 .26458 -4.5 -123.285)"/><path style="fill:#419d9a;fill-opacity:1;stroke:#fc0;stroke-width:0" d="M136.408 851.077c0-.21.661-2.447 1.47-4.968 7.946-24.799 28.215-93.609 55.327-187.833 4.045-14.056 7.567-26.216 7.828-27.021.26-.806 2.837-9.816 5.725-20.022 2.887-10.206 5.356-18.672 5.486-18.812.324-.35 49.999 52.786 49.965 53.445-.024.464-124.769 204.497-125.51 205.286-.181.192-.29.164-.29-.075z" transform="matrix(.26458 0 0 .26458 -4.5 -123.285)"/><path style="fill:#3eedec;fill-opacity:1;stroke:#fc0;stroke-width:0" d="M141.943 849.89c0-.175 136.016-156.924 138.726-159.872.494-.538 2.602-2.954 4.685-5.371 3.164-3.67 3.918-4.377 4.578-4.29.69.09.79-.026.79-.915 0-.853.957-2.118 5.916-7.82 3.254-3.743 6.029-6.735 6.166-6.65.138.085 11.706-6.738 25.708-15.163 14.001-8.425 25.502-15.274 25.556-15.22.112.113-4.698 5.11-39.406 40.937-50.895 52.537-84.826 87.213-117.712 120.297-32.826 33.024-55.007 54.826-55.007 54.067z" transform="matrix(.26458 0 0 .26458 -4.5 -123.285)"/><path style="fill:#436a6f;fill-opacity:1;stroke:#fc0;stroke-width:0" d="M138.687 850.93c0-.418 124.63-203.759 124.89-203.766.143-.004 3.734 9.49 7.98 21.096 6.156 16.83 7.642 21.199 7.338 21.578-.85 1.062-138.709 159.763-139.43 160.509-.427.443-.778.706-.778.584zM279.647 686.347a8443.1 8443.1 0 0 1-7.531-20.583c-3.759-10.296-7.023-19.105-7.254-19.575-.402-.82.099-1.703 11.825-20.856l12.245-20.001.28 36.205.28 36.206-4.574 5.234-4.573 5.233z" transform="matrix(.26458 0 0 .26458 -4.5 -123.285)"/><path style="fill:#6f6e43;fill-opacity:1;stroke:#fc0;stroke-width:0" d="m290.56 639.645-.242-36.564 30.56-49.923c26.55-43.372 30.574-49.786 30.665-48.878.112 1.128-5.056 104.764-5.336 106.999-.156 1.238-2.421 3.94-27.702 33.044-15.143 17.432-27.57 31.738-27.617 31.79-.047.053-.194-16.358-.327-36.468z" transform="matrix(.26458 0 0 .26458 -4.5 -123.285)"/></svg>