<svg width="648.474" height="426.895" viewBox="0 0 171.575 112.949" xmlns="http://www.w3.org/2000/svg"><path style="fill:none;stroke:#000;stroke-width:.264583px;stroke-linecap:butt;stroke-linejoin:miter;stroke-opacity:1" d="m79.677 118.697 79.849 50.476 21.361 2.929 11.965 14.626-21.87-15.832" transform="translate(-21.399 -73.885)"/><path style="fill:none;stroke:#000;stroke-width:.264583px;stroke-linecap:butt;stroke-linejoin:miter;stroke-opacity:1" d="M180.887 172.102c-1.722-.862-80.107-49.615-80.107-49.615" transform="translate(-21.399 -73.885)"/><path style="fill:none;stroke:#000;stroke-width:.264583px;stroke-linecap:butt;stroke-linejoin:miter;stroke-opacity:1" d="m122.142 145.14-42.035-44.015-13.868-8.356 13.438 25.928s45.566 26.96 42.379 26.874" transform="translate(-21.399 -73.885)"/><path style="fill:none;stroke:#000;stroke-width:.264583px;stroke-linecap:butt;stroke-linejoin:miter;stroke-opacity:1" d="m80.107 101.125 12.06 25.496s-37.126 12.404-38.59 12.146" transform="translate(-21.399 -73.885)"/><path style="fill:none;stroke:#000;stroke-width:.264583px;stroke-linecap:butt;stroke-linejoin:miter;stroke-opacity:1" d="M122.142 145.14c-2.412 0-68.565-6.373-68.565-6.373l-31.87-21.19 48.064-14.471 3.36 2.842M192.852 186.728 185.712 169l-95.957-58.143" transform="translate(-21.399 -73.885)"/><path style="fill:none;stroke:#000;stroke-width:.264583px;stroke-linecap:butt;stroke-linejoin:miter;stroke-opacity:1" d="m185.711 169-.603-11.37-80.969-48.408-9.56 4.393-.431 1.98" transform="translate(-21.399 -73.885)"/><path style="fill:none;stroke:#000;stroke-width:.264583px;stroke-linecap:butt;stroke-linejoin:miter;stroke-opacity:1" d="m147.639 135.838-18.175-54.439-13.093-7.321-12.231 35.144" transform="translate(-21.399 -73.885)"/><path style="fill:none;stroke:#000;stroke-width:.264583px;stroke-linecap:butt;stroke-linejoin:miter;stroke-opacity:1" d="M147.639 135.838c.258-1.809 2.24-35.489 2.24-35.489l-17.056-8.785M149.878 100.35l-12.145 6.46M112.495 85.103l-32.388 16.022" transform="translate(-21.399 -73.885)"/><path style="fill:#cdce41;fill-opacity:1;stroke:#fc0;stroke-width:0" d="M475.072 460.726c-44.26-26.445-80.478-48.206-80.485-48.358-.013-.294 44.742-129.038 45.36-130.483l.369-.861 24.227 13.56 24.228 13.56 15.742 47.366c8.658 26.052 15.897 47.806 16.087 48.343 1.807 5.116 35.115 104.785 35.042 104.859-.054.054-36.31-21.54-80.57-47.986z" transform="matrix(.26458 0 0 .26458 -21.399 -73.885)"/><path style="fill:#e0df3f;fill-opacity:1;stroke:#fc0;stroke-width:0" d="M539.85 456.826c-13.831-41.497-17.564-53.035-17.247-53.322.515-.468 42.934-22.996 43.05-22.864.09.103-1.98 34.94-4.562 76.767-1.705 27.618-3.34 52.126-3.489 52.275-.055.055-8.044-23.73-17.752-52.856zM529.787 533.654c-94.201-57.066-171.182-103.85-171.068-103.966.341-.345 34.365-15.905 34.778-15.905.21 0 36.972 21.876 81.693 48.614l81.312 48.614.452 1.359c.498 1.491 1.57 1.91 1.76.688.09-.579 9.7 5.064 69.936 41.064 38.408 22.954 69.943 41.834 70.079 41.954.203.18 2.57 41.057 2.39 41.268-.031.037-77.13-46.624-171.332-103.69zM657.3 646.206a22484 22484 0 0 0-37.363-5.16l-16.69-2.286-69.908-44.162c-38.45-24.29-70.237-44.547-70.637-45.017-.4-.47-.694-1.008-.651-1.195.042-.188-13.628-14.691-30.379-32.23-16.75-17.54-34.434-36.06-39.297-41.155-4.863-5.096-8.793-9.314-8.733-9.374.06-.06 3.093 1.752 6.741 4.025 12.265 7.642 125.802 78.169 157.855 98.055 45.221 28.057 94.572 58.583 112.968 69.878 20.564 12.626 18.949 11.576 17.743 11.531-.538-.02-10.28-1.33-21.65-2.91zM453.663 547.354c-.716-.068-9.506-.851-19.533-1.74-32.174-2.853-73.026-6.676-159.848-14.96-30.082-2.87-57.361-5.465-60.622-5.768-3.26-.302-5.894-.583-5.854-.624.04-.04 3.88-1.17 8.532-2.51 18.931-5.454 77.673-24.305 123.295-39.568l8.704-2.912 53.776 33.995c29.577 18.697 53.85 34.068 53.938 34.157.163.163.032.159-2.388-.07z" transform="matrix(.26458 0 0 .26458 -21.399 -73.885)"/><path style="fill:#abac40;fill-opacity:1;stroke:#fc0;stroke-width:0" d="m704.993 675.415-20.835-25.482-2.93-1.74c-13.456-7.99-121.163-74.71-282.716-175.132-9.562-5.944-17.474-10.676-17.58-10.515-.165.25-16.198-16.23-22.44-23.065l-2.06-2.258.699-3.072.7-3.072 8.85 5.357c4.866 2.947 82.16 49.781 171.764 104.076l162.914 98.719 12.32 30.59c6.776 16.826 12.282 30.7 12.235 30.834-.047.133-9.461-11.225-20.92-25.24z" transform="matrix(.26458 0 0 .26458 -21.399 -73.885)"/><path style="fill:#5f5e41;fill-opacity:1;stroke:#fc0;stroke-width:0" d="M444.385 535.74c-16.264-10.918-37.143-23.978-81.344-50.88l-15.418-9.384-20.981-44.393c-11.54-24.416-20.932-44.442-20.873-44.502.12-.12 147.294 153.853 148.015 154.852.246.34.32.6.163.577-.156-.023-4.459-2.845-9.562-6.27zM686.019 673.832c-20.808-15.063-37.796-27.424-37.752-27.467.075-.075 31.813 4.21 34.006 4.591.921.16 3.466 3.14 21.435 25.1 11.214 13.705 20.333 24.973 20.266 25.04-.068.068-17.148-12.2-37.955-27.264zM410.761 517.093c-23.954-15.15-43.482-27.615-43.395-27.702.167-.168 14.068 8.242 33.394 20.204 22.127 13.694 40.96 25.742 49.322 31.554 4.612 3.204 5.012 3.513 4.542 3.498-.17-.005-19.909-12.405-43.863-27.554z" transform="matrix(.26458 0 0 .26458 -21.399 -73.885)"/><path style="fill:#41d0d0;fill-opacity:1;stroke:#fc0;stroke-width:0" d="M143.331 484.327c-32.63-21.7-59.33-39.535-59.332-39.635-.004-.129 177.942-53.84 179.396-54.148.1-.021 2.884 2.255 6.185 5.06l6.004 5.098 12.511 24.202 12.512 24.202 22.923 14.486c12.608 7.968 22.976 14.571 23.04 14.675.197.319-70.691 23.554-103.216 33.832-19.883 6.282-38.806 11.778-40.297 11.702-.219-.012-27.095-17.775-59.726-39.474zM348.053 423.519c-5.646-3.431-8.673-5.095-8.824-4.852-.259.42-1.163-.496-21.301-21.588-7.661-8.023-13.874-14.642-13.807-14.71.41-.409 119.507-59.121 119.645-58.983.094.094-6.779 20.137-15.273 44.54l-15.445 44.368-17.875 8.225c-9.83 4.524-18.021 8.225-18.2 8.224-.18 0-4.193-2.351-8.92-5.224zM512.523 375.008c-5.05-15.022-9.11-27.313-9.024-27.313.19 0 56.386 28.898 59.332 30.51l2.06 1.128-18.664 9.92a12285.65 12285.65 0 0 0-21.592 11.493l-2.93 1.575z" transform="matrix(.26458 0 0 .26458 -21.399 -73.885)"/><path style="fill:#414d4e;fill-opacity:1;stroke:#fc0;stroke-width:0" d="m324.58 461.8-21.65-12.951c-1.245-.744-2.38-2.86-25.977-48.402-13.572-26.192-24.633-47.657-24.58-47.698.053-.042 11.294 6.68 24.981 14.939l24.885 15.015 21.085 44.596c11.598 24.527 21.31 45.072 21.584 45.654.273.582.39 1.05.258 1.04-.131-.01-9.395-5.497-20.586-12.192zM347.97 428.514c-3.875-4.073-7.007-7.448-6.96-7.498.068-.073 15.021 8.865 15.416 9.215.179.158-.996 5.69-1.208 5.69-.111 0-3.372-3.333-7.248-7.407z" transform="matrix(.26458 0 0 .26458 -21.399 -73.885)"/></svg>